<svg xmlns="http://www.w3.org/2000/svg" version="1.1" xmlns:xlink="http://www.w3.org/1999/xlink" xmlns:svgjs="http://svgjs.dev/svgjs" width="2000" height="787" viewBox="0 0 2000 787"><g transform="matrix(1,0,0,1,-1.2121212121212466,0.0336736451017714)"><svg viewBox="0 0 396 156" data-background-color="#fffbf4" preserveAspectRatio="xMidYMid meet" height="787" width="2000" xmlns="http://www.w3.org/2000/svg" xmlns:xlink="http://www.w3.org/1999/xlink"><defs></defs><g id="tight-bounds" transform="matrix(1,0,0,1,0.2400000000000091,-0.006674826729195615)"><svg viewBox="0 0 395.52 156.0133496534584" height="156.0133496534584" width="395.52"><g><svg viewBox="0 0 666.9025498932108 263.0605296856606" height="156.0133496534584" width="395.52"><g transform="matrix(1,0,0,1,269.4049498932109,53.59503465447614)"><svg viewBox="0 0 397.4975999999999 155.8704603767083" height="155.8704603767083" width="397.4975999999999"><g><svg viewBox="0 0 397.4975999999999 155.8704603767083" height="155.8704603767083" width="397.4975999999999"><g><rect width="397.4975999999999" height="9.073047441606606" x="0" y="111.29741094699082" fill="#ffffff" opacity="1" stroke-width="0" stroke="transparent" fill-opacity="1" class="rect-o-0" data-fill-palette-color="primary" rx="1%" id="o-0" data-palette-color="#ffffff"></rect></g><g transform="matrix(1,0,0,1,0.9887999999999693,0)"><svg viewBox="0 0 395.52 100.60926605504586" height="100.60926605504586" width="395.52"><g transform="matrix(1,0,0,1,0,0)"><svg width="395.52" viewBox="2.5 -37 217.97999572753906 55.453125" height="100.60926605504586" data-palette-color="#ffffff"><path d="M7.8-31.65Q7.85-31.6 6.55-32.75L6.55-32.75Q5.65-33.55 5.2-33.9L5.2-33.9Q5.4-35.25 6.2-35.8 7-36.35 8.3-36.65L8.3-36.65Q9.65-37 11.2-37L11.2-37Q12.7-37 14.25-36.7L14.25-36.7Q18.7-35.9 22.1-34.85 25.5-33.8 28.45-31.9L28.45-31.9Q30.5-30.65 31.9-28.95L31.9-28.95Q33.95-26.3 33.95-23.55L33.95-23.55Q33.95-21.2 32.4-18.7L32.4-18.7Q26.5-9.35 20.25-3.95L20.25-3.95Q16.45-0.6 11.85 1.55L11.85 1.55Q10.15 2.4 8.3 2.4L8.3 2.4Q6.1 2.4 4.05 1.15L4.05 1.15Q3.3 0.65 2.9 0.13 2.5-0.4 2.5-1.1L2.5-1.1 2.55-1.55 2.9-4.15Q3.5-8.75 4-11L4-11 4.25-12.1Q5.75-18.6 6.5-22.58 7.25-26.55 7.6-30.75L7.6-30.75 7.8-31.65ZM14.4-32.25Q13.8-32.3 12.8-32.15L12.8-32.15 11.7-32Q12.9-31 13.45-30.25 14-29.5 14-28.65L14-28.65Q14-28.45 13.9-27.95L13.9-27.95Q13.25-25.05 12.15-20.8L12.15-20.8 10.35-13.6Q9.15-8.7 8.25-4.5L8.25-4.5Q8.1-3.95 8.08-3.28 8.05-2.6 8.05-2.3L8.05-2.3Q8.5-2.1 8.55-2.1L8.55-2.1 9.2-2.35Q16.7-6 22-12.55L22-12.55Q24.15-15.3 25.63-17.75 27.1-20.2 27.85-22.9L27.85-22.9Q28.05-23.55 28.05-24.45L28.05-24.45Q28.05-26 27.28-27.25 26.5-28.5 25.15-29.15L25.15-29.15Q20.15-31.4 14.4-32.25L14.4-32.25ZM43.65-23.3Q43.55-23 42.92-22.65 42.3-22.3 41.9-22L41.9-22 40.5-22.75Q38.45-23.85 37.7-24.5L37.7-24.5Q37.3-24.8 37.3-25.25L37.3-25.25Q37.3-25.55 37.52-25.78 37.75-26 38.2-26L38.2-26Q40.15-26 42.95-25L42.95-25Q43.25-24.95 43.5-24.33 43.75-23.7 43.65-23.3L43.65-23.3ZM39.15-14Q39.3-14.65 39.35-14.95 39.4-15.25 39.4-15.6L39.4-15.6Q39.4-16.3 39.82-16.7 40.25-17.1 41.45-17.1L41.45-17.1Q42.85-17.1 43.92-16.23 45-15.35 45.25-13.95L45.25-13.95Q45.4-13.25 45.45-12.4 45.5-11.55 45.5-11.3L45.5-11.3 46.2-2.75Q46.35-1.4 45.82-0.68 45.3 0.05 43.85 0.05L43.85 0.05Q42.6 0.05 41.72-0.65 40.85-1.35 40.65-2.45L40.65-2.45 39.35-13.05 39.15-14ZM66.75-12.6Q66.6-9 66.25-7.15 65.9-5.3 64.87-3.63 63.85-1.95 61.55 0.25L61.55 0.25 63.3 1.2Q64.9 2.1 65.65 2.45L65.65 2.45Q67.9 3.5 69.05 5.13 70.2 6.75 70.2 8.7L70.2 8.7Q70.2 11.1 68.6 13.45L68.6 13.45Q66.9 15.95 64.35 17.18 61.8 18.4 58.9 18.45L58.9 18.45Q56.75 18.5 54.5 17.75L54.5 17.75Q53.45 17.4 52.4 16.23 51.35 15.05 50.72 13.6 50.1 12.15 50.15 11.05L50.15 11.05Q50.2 10.8 50.35 10.53 50.5 10.25 50.7 10.2L50.7 10.2Q50.75 10.15 50.9 10.15L50.9 10.15Q51.05 10.15 51.32 10.28 51.6 10.4 51.7 10.45L51.7 10.45Q51.95 10.55 52.05 10.9L52.05 10.9Q52.75 12.45 53.6 13.35 54.45 14.25 55.85 14.15L55.85 14.15Q61 13.8 62.9 11.3L62.9 11.3Q63.55 10.5 63.97 9.47 64.4 8.45 64.4 7.55L64.4 7.55Q64.4 6.25 63.77 5.65 63.15 5.05 61.85 4.8L61.85 4.8Q60.45 4.55 59.17 4.1 57.9 3.65 56.1 2.75L56.1 2.75Q55.2 2.3 54.85 1.95 54.5 1.6 54.5 1.1L54.5 1.1Q54.5 0.6 55.1-1.45L55.1-1.45Q55.2-1.75 54.17-2.45 53.15-3.15 52.4-3.6L52.4-3.6Q49.7-5.2 49.7-8.8L49.7-8.8Q49.7-9.8 49.85-10.7L49.85-10.7Q50.75-16.2 55.2-18.5L55.2-18.5Q56.25-19.05 57.4-19.05L57.4-19.05Q58.25-19.05 59.15-18.8 60.05-18.55 60.2-18.5L60.2-18.5 61.25-18.2Q62-18 62.7-18L62.7-18Q63.65-18 64.42-18.35 65.2-18.7 66-19.45L66-19.45Q67.15-20.4 68.45-20.4L68.45-20.4Q69.4-20.4 70.15-19.88 70.9-19.35 71.25-18.35L71.25-18.35Q71.35-17.95 71.35-17.7L71.35-17.7Q71.35-17.25 71.2-17L71.2-17Q71.05-16.8 70.35-15.7L70.35-15.7Q70-15.05 69.7-14.6 69.4-14.15 68.75-13.6L68.75-13.6Q68.3-13.35 67.8-13.23 67.3-13.1 67.02-13 66.75-12.9 66.75-12.6L66.75-12.6ZM56.25-13.35Q54.7-11.55 54.7-9.7L54.7-9.7Q54.7-8.4 55.52-7.23 56.35-6.05 58.05-5.2L58.05-5.2Q59.95-5.95 61-7.8 62.05-9.65 62.05-11.85L62.05-11.85Q62.05-13.2 61.65-14.3 61.25-15.4 60.05-16L60.05-16Q57.75-15.1 56.25-13.35L56.25-13.35ZM79.14-23.3Q79.04-23 78.42-22.65 77.79-22.3 77.39-22L77.39-22 75.99-22.75Q73.94-23.85 73.19-24.5L73.19-24.5Q72.79-24.8 72.79-25.25L72.79-25.25Q72.79-25.55 73.02-25.78 73.24-26 73.69-26L73.69-26Q75.64-26 78.44-25L78.44-25Q78.74-24.95 78.99-24.33 79.24-23.7 79.14-23.3L79.14-23.3ZM74.64-14Q74.79-14.65 74.84-14.95 74.89-15.25 74.89-15.6L74.89-15.6Q74.89-16.3 75.32-16.7 75.74-17.1 76.94-17.1L76.94-17.1Q78.34-17.1 79.42-16.23 80.49-15.35 80.74-13.95L80.74-13.95Q80.89-13.25 80.94-12.4 80.99-11.55 80.99-11.3L80.99-11.3 81.69-2.75Q81.84-1.4 81.32-0.68 80.79 0.05 79.34 0.05L79.34 0.05Q78.09 0.05 77.22-0.65 76.34-1.35 76.14-2.45L76.14-2.45 74.84-13.05 74.64-14ZM110.29-13.6Q110.89-13.15 111.19-12.8 111.49-12.45 111.49-11.95L111.49-11.95Q111.49-11.45 111.14-10.9L111.14-10.9Q110.34-10.75 110.19-10.8L110.19-10.8Q108.04-11.35 104.89-11.35L104.89-11.35Q102.49-11.35 99.14-11L99.14-11 97.14-10.85Q96.09-10.75 94.34-10.35L94.34-10.35 92.74-10.05Q92.04-9.95 91.64-9.95L91.64-9.95Q89.19-9.95 86.94-11.65L86.94-11.65Q85.94-12.35 85.94-13.2L85.94-13.2Q85.94-14.15 87.39-14.85L87.39-14.85Q88.64-15.4 89.99-15.55L89.99-15.55 92.39-15.7Q97.69-16.15 101.14-16.15L101.14-16.15Q103.84-16.15 106.12-15.6 108.39-15.05 110.29-13.6L110.29-13.6ZM132.79-12.6Q132.64-9 132.29-7.15 131.94-5.3 130.91-3.63 129.89-1.95 127.59 0.25L127.59 0.25 129.34 1.2Q130.94 2.1 131.69 2.45L131.69 2.45Q133.94 3.5 135.09 5.13 136.24 6.75 136.24 8.7L136.24 8.7Q136.24 11.1 134.64 13.45L134.64 13.45Q132.94 15.95 130.39 17.18 127.84 18.4 124.94 18.45L124.94 18.45Q122.79 18.5 120.54 17.75L120.54 17.75Q119.49 17.4 118.44 16.23 117.39 15.05 116.76 13.6 116.14 12.15 116.19 11.05L116.19 11.05Q116.24 10.8 116.39 10.53 116.54 10.25 116.74 10.2L116.74 10.2Q116.79 10.15 116.94 10.15L116.94 10.15Q117.09 10.15 117.36 10.28 117.64 10.4 117.74 10.45L117.74 10.45Q117.99 10.55 118.09 10.9L118.09 10.9Q118.79 12.45 119.64 13.35 120.49 14.25 121.89 14.15L121.89 14.15Q127.04 13.8 128.94 11.3L128.94 11.3Q129.59 10.5 130.01 9.47 130.44 8.45 130.44 7.55L130.44 7.55Q130.44 6.25 129.81 5.65 129.19 5.05 127.89 4.8L127.89 4.8Q126.49 4.55 125.21 4.1 123.94 3.65 122.14 2.75L122.14 2.75Q121.24 2.3 120.89 1.95 120.54 1.6 120.54 1.1L120.54 1.1Q120.54 0.6 121.14-1.45L121.14-1.45Q121.24-1.75 120.21-2.45 119.19-3.15 118.44-3.6L118.44-3.6Q115.74-5.2 115.74-8.8L115.74-8.8Q115.74-9.8 115.89-10.7L115.89-10.7Q116.79-16.2 121.24-18.5L121.24-18.5Q122.29-19.05 123.44-19.05L123.44-19.05Q124.29-19.05 125.19-18.8 126.09-18.55 126.24-18.5L126.24-18.5 127.29-18.2Q128.04-18 128.74-18L128.74-18Q129.69-18 130.46-18.35 131.24-18.7 132.04-19.45L132.04-19.45Q133.19-20.4 134.49-20.4L134.49-20.4Q135.44-20.4 136.19-19.88 136.94-19.35 137.29-18.35L137.29-18.35Q137.39-17.95 137.39-17.7L137.39-17.7Q137.39-17.25 137.24-17L137.24-17Q137.09-16.8 136.39-15.7L136.39-15.7Q136.04-15.05 135.74-14.6 135.44-14.15 134.79-13.6L134.79-13.6Q134.34-13.35 133.84-13.23 133.34-13.1 133.06-13 132.79-12.9 132.79-12.6L132.79-12.6ZM122.29-13.35Q120.74-11.55 120.74-9.7L120.74-9.7Q120.74-8.4 121.56-7.23 122.39-6.05 124.09-5.2L124.09-5.2Q125.99-5.95 127.04-7.8 128.09-9.65 128.09-11.85L128.09-11.85Q128.09-13.2 127.69-14.3 127.29-15.4 126.09-16L126.09-16Q123.79-15.1 122.29-13.35L122.29-13.35ZM155.74-2.55Q155.29-2.75 154.84-2.75L154.84-2.75Q154.39-2.75 154.06-2.53 153.74-2.3 153.34-1.85L153.34-1.85Q152.74-1.25 152.09-0.85L152.09-0.85Q151.49-0.5 149.89-0.2L149.89-0.2Q149.19-0.1 148.74-0.1L148.74-0.1Q146.64-0.1 144.36-1.03 142.09-1.95 141.14-3.25L141.14-3.25Q140.14-4.65 140.19-6.25L140.19-6.25Q140.24-8.65 142.19-11.05L142.19-11.05Q144.09-13.35 145.66-14.3 147.24-15.25 149.99-15.5L149.99-15.5Q150.59-15.5 151.71-15.7 152.84-15.9 152.84-16.25L152.84-16.25Q152.84-16.95 152.21-17.53 151.59-18.1 149.69-18.1L149.69-18.1Q148.99-18.1 147.59-18L147.59-18Q146.19-17.9 145.64-17.9L145.64-17.9Q143.94-17.9 143.19-18.45L143.19-18.45Q142.99-18.55 142.99-19.4L142.99-19.4Q142.99-20.9 144.04-21.3L144.04-21.3Q146.19-22.1 148.49-22.15L148.49-22.15Q151.39-22.15 153.86-20.88 156.34-19.6 157.49-17.7L157.49-17.7Q158.64-15.8 158.99-12.45L158.99-12.45Q159.39-8.7 159.39-2.9L159.39-2.9Q159.39-1.3 158.94-1.05L158.94-1.05Q158.54-0.8 158.19-0.8L158.19-0.8Q157.74-0.8 157.36-1.07 156.99-1.35 156.54-1.85L156.54-1.85Q156.09-2.4 155.74-2.55L155.74-2.55ZM147.84-3.15Q150.19-3.85 152.44-5.4L152.44-5.4Q152.94-5.75 153.34-6.3 153.74-6.85 153.84-7L153.84-7Q153.94-7.15 154.01-7.88 154.09-8.6 154.04-9.05L154.04-9.05Q153.99-9.2 153.86-9.85 153.74-10.5 153.49-11L153.49-11Q153.24-11.4 152.69-11.75 152.14-12.1 151.69-12.05L151.69-12.05Q150.74-12 149.64-11.35 148.54-10.7 147.59-9.6L147.59-9.6Q146.64-8.45 146.11-7.28 145.59-6.1 145.59-5.1L145.59-5.1Q145.69-3.75 146.34-3.3L146.34-3.3Q146.69-3.05 147.19-3.05L147.19-3.05Q147.59-3.05 147.84-3.15L147.84-3.15ZM189.73-13.05Q189.63-14.95 188.13-15.85L188.13-15.85Q186.93-15.55 186.18-15.1 185.43-14.65 185.08-14.23 184.73-13.8 183.83-12.6L183.83-12.6Q183.53-12.2 183.21-11.5 182.88-10.8 182.83-10.65L182.83-10.65Q182.68-10.3 182.68-9.9L182.68-9.9Q182.68-9.6 182.81-8.97 182.93-8.35 182.88-8L182.88-8Q182.83-7.25 182.93-5.65L182.93-5.65 182.98-4.1Q182.98-3.4 182.93-3.05L182.93-3.05Q182.83-2.25 182.43-1.65 182.03-1.05 181.33-1.05L181.33-1.05Q181.08-1.05 180.68-1.2L180.68-1.2Q180.33-1.3 179.53-1.55 178.73-1.8 178.28-2.33 177.83-2.85 177.83-3.85L177.83-3.85Q177.83-6.45 177.33-11.65L177.33-11.65Q177.23-12.2 177.13-13.5L177.13-13.5Q177.08-14.05 176.63-14.35 176.18-14.65 175.53-14.65L175.53-14.65Q174.48-14.65 173.93-14.1L173.93-14.1Q171.63-12.8 170.58-11.15 169.53-9.5 169.53-6.9L169.53-6.9 169.58-5.2Q169.58-3.55 168.73-2.15L168.73-2.15Q168.48-1.7 167.71-1.38 166.93-1.05 166.38-1.15L166.38-1.15Q165.88-1.2 165.36-1.83 164.83-2.45 164.83-2.95L164.83-2.95Q164.68-7.15 164.68-11.3L164.68-11.3Q164.68-15.05 164.78-16.9L164.78-16.9Q164.83-17.85 165.43-18.4 166.03-18.95 166.88-18.95L166.88-18.95Q167.98-18.95 168.83-18.15L168.83-18.15Q169.28-17.3 169.58-16.93 169.88-16.55 170.23-16.55L170.23-16.55Q170.53-16.55 170.93-16.88 171.33-17.2 172.03-17.95L172.03-17.95Q173.68-19.75 175.48-19.75L175.48-19.75Q177.43-19.75 180.18-17.8L180.18-17.8Q180.38-17.65 180.73-17.38 181.08-17.1 181.33-17.1L181.33-17.1Q181.68-17.1 182.43-17.9L182.43-17.9Q185.23-20.5 189.53-20.75L189.53-20.75Q190.88-20.8 192.26-19.73 193.63-18.65 193.98-17.15L193.98-17.15Q194.58-14.6 194.83-11.15L194.83-11.15Q195.13-5.95 195.08-3.35L195.08-3.35Q195.03-2.15 194.43-1.48 193.83-0.8 192.88-0.8L192.88-0.8Q192.13-0.8 191.28-1.25L191.28-1.25Q190.93-1.4 190.63-1.8 190.33-2.2 190.33-2.5L190.33-2.5 190.03-7.8Q189.98-8.65 189.93-9.98 189.88-11.3 189.73-13.05L189.73-13.05ZM209.18-7.8Q208.68-7.5 207.73-7.5L207.73-7.5Q207.38-7.5 206.88-7.55 206.38-7.6 206.03-7.55L206.03-7.55Q206.43-5.9 207.93-4.88 209.43-3.85 211.28-3.85L211.28-3.85Q212.88-3.85 214.13-4.55L214.13-4.55Q215.98-5.5 217.33-6.8L217.33-6.8Q218.28-7.75 219.13-7.75L219.13-7.75Q219.68-7.75 220.08-7.2L220.08-7.2Q220.48-6.55 220.48-5.6L220.48-5.6Q220.48-4.6 220.08-4.05L220.08-4.05Q218.78-2.05 216.71-1.3 214.63-0.55 211.88-0.55L211.88-0.55Q209.03-0.55 206.38-1.8 203.73-3.05 201.86-5.23 199.98-7.4 199.38-10.05L199.38-10.05Q198.98-11.6 198.98-13.1L198.98-13.1Q198.98-15.45 200.31-16.9 201.63-18.35 204.58-19.65L204.58-19.65Q207.28-20.8 209.58-20.8L209.58-20.8Q211.23-20.8 212.78-20.3L212.78-20.3Q217.58-18.8 217.58-16.2L217.58-16.2Q217.58-14.55 215.63-12.2L215.63-12.2Q214.68-11.1 213.38-10.25 212.08-9.4 210.86-8.72 209.63-8.05 209.18-7.8L209.18-7.8ZM211.28-17.05Q211.23-17.3 210.91-17.48 210.58-17.65 210.53-17.7L210.53-17.7Q209.18-17.8 207.78-16.93 206.38-16.05 205.46-14.7 204.53-13.35 204.53-12.1L204.53-12.1 204.58-11.7Q204.63-11.5 205.11-11.2 205.58-10.9 205.68-11L205.68-11Q209.23-13.65 211.03-15.25L211.03-15.25Q211.33-15.55 211.33-16.35L211.33-16.35Q211.33-16.85 211.28-17.05L211.28-17.05Z" opacity="1" transform="matrix(1,0,0,1,0,0)" fill="#ffffff" class="undefined-text-0" data-fill-palette-color="primary" id="text-0"></path></svg></g></svg></g><g transform="matrix(1,0,0,1,0,131.05860328054237)"><svg viewBox="0 0 232.20979199999996 24.81185709616593" height="24.81185709616593" width="232.20979199999996"><g transform="matrix(1,0,0,1,0,0)"><svg width="232.20979199999996" viewBox="3.049999952316284 -33.5 318.1800231933594 34" height="24.81185709616593" data-palette-color="#ffffff"><path d="M18.3 0.5L18.3 0.5Q13.65 0.5 10.25-1.55 6.85-3.6 4.95-7.38 3.05-11.15 3.05-16.5L3.05-16.5Q3.05-21.75 5.03-25.55 7-29.35 10.63-31.43 14.25-33.5 18.95-33.5L18.95-33.5Q24.1-33.5 27.28-31.6 30.45-29.7 32.35-25.7L32.35-25.7 27.4-23.35Q26.45-26.1 24.28-27.48 22.1-28.85 19-28.85L19-28.85Q15.9-28.85 13.58-27.4 11.25-25.95 9.95-23.18 8.65-20.4 8.65-16.5L8.65-16.5Q8.65-12.55 9.8-9.78 10.95-7 13.28-5.55 15.6-4.1 19-4.1L19-4.1Q20.85-4.1 22.45-4.58 24.05-5.05 25.25-5.98 26.45-6.9 27.13-8.33 27.8-9.75 27.8-11.7L27.8-11.7 27.8-12.65 18.2-12.65 18.2-17 32.55-17 32.55 0 28.55 0 28.25-6.65 29.25-6.15Q28.05-3 25.28-1.25 22.5 0.5 18.3 0.5ZM54.8-9.25L54.8-16.05Q54.8-18.55 53.42-19.93 52.05-21.3 49.65-21.3L49.65-21.3Q47.4-21.3 45.8-20.25 44.2-19.2 43.45-16.85L43.45-16.85 38.95-18.75Q39.9-21.8 42.67-23.65 45.45-25.5 49.85-25.5L49.85-25.5Q52.85-25.5 55.15-24.53 57.45-23.55 58.77-21.6 60.1-19.65 60.1-16.6L60.1-16.6 60.1-5.45Q60.1-3.6 61.95-3.6L61.95-3.6Q62.85-3.6 63.7-3.85L63.7-3.85 63.4-0.15Q62.25 0.4 60.5 0.4L60.5 0.4Q58.9 0.4 57.62-0.18 56.35-0.75 55.62-1.93 54.9-3.1 54.9-4.85L54.9-4.85 54.9-5.2 56-5.25Q55.55-3.3 54.15-2.02 52.75-0.75 50.9-0.13 49.05 0.5 47.15 0.5L47.15 0.5Q44.8 0.5 42.92-0.25 41.05-1 39.97-2.53 38.9-4.05 38.9-6.3L38.9-6.3Q38.9-9.1 40.72-10.9 42.55-12.7 45.9-13.35L45.9-13.35 55.6-15.25 55.55-11.5 48.5-10.05Q46.4-9.65 45.35-8.9 44.3-8.15 44.3-6.7L44.3-6.7Q44.3-5.3 45.37-4.48 46.45-3.65 48.25-3.65L48.25-3.65Q49.5-3.65 50.67-3.95 51.85-4.25 52.8-4.93 53.75-5.6 54.27-6.68 54.8-7.75 54.8-9.25L54.8-9.25ZM74.2 0L68.85 0 68.85-25 73.6-25 73.85-20.8Q75.15-23.2 77.32-24.35 79.5-25.5 81.95-25.5L81.95-25.5Q84.65-25.5 86.92-24.28 89.2-23.05 90.35-20.6L90.35-20.6Q91.15-22.25 92.55-23.35 93.95-24.45 95.65-24.98 97.34-25.5 99-25.5L99-25.5Q101.4-25.5 103.5-24.5 105.6-23.5 106.9-21.45 108.2-19.4 108.2-16.2L108.2-16.2 108.2 0 102.84 0 102.84-15.35Q102.84-18.4 101.4-19.75 99.95-21.1 97.7-21.1L97.7-21.1Q95.95-21.1 94.47-20.25 93-19.4 92.1-17.73 91.2-16.05 91.2-13.6L91.2-13.6 91.2 0 85.85 0 85.85-15.35Q85.85-18.4 84.4-19.75 82.95-21.1 80.7-21.1L80.7-21.1Q79.2-21.1 77.7-20.3 76.2-19.5 75.2-17.8 74.2-16.1 74.2-13.3L74.2-13.3 74.2 0ZM127.29 0.5L127.29 0.5Q123.54 0.5 120.69-1.05 117.84-2.6 116.27-5.53 114.69-8.45 114.69-12.5L114.69-12.5Q114.69-16.55 116.27-19.48 117.84-22.4 120.64-23.95 123.44-25.5 126.99-25.5L126.99-25.5Q130.64-25.5 133.19-24 135.74-22.5 137.09-19.9 138.44-17.3 138.44-14L138.44-14Q138.44-13.1 138.39-12.3 138.34-11.5 138.24-10.9L138.24-10.9 118.14-10.9 118.14-15 135.89-15 133.24-14.2Q133.24-17.6 131.54-19.43 129.84-21.25 126.89-21.25L126.89-21.25Q124.74-21.25 123.14-20.25 121.54-19.25 120.69-17.28 119.84-15.3 119.84-12.45L119.84-12.45Q119.84-9.65 120.74-7.7 121.64-5.75 123.29-4.75 124.94-3.75 127.19-3.75L127.19-3.75Q129.69-3.75 131.24-4.7 132.79-5.65 133.69-7.35L133.69-7.35 137.94-5.35Q137.04-3.55 135.52-2.23 133.99-0.9 131.89-0.2 129.79 0.5 127.29 0.5ZM184.44-10.45L189.54-8.75Q188.54-5.75 186.54-3.68 184.54-1.6 181.84-0.55 179.14 0.5 175.89 0.5L175.89 0.5Q171.14 0.5 167.64-1.55 164.14-3.6 162.24-7.4 160.34-11.2 160.34-16.5L160.34-16.5Q160.34-21.8 162.24-25.6 164.14-29.4 167.64-31.45 171.14-33.5 175.84-33.5L175.84-33.5Q179.09-33.5 181.71-32.6 184.34-31.7 186.19-29.9 188.04-28.1 189.04-25.4L189.04-25.4 183.99-23.15Q182.99-26.1 181.09-27.48 179.19-28.85 176.14-28.85L176.14-28.85Q173.09-28.85 170.79-27.4 168.49-25.95 167.21-23.2 165.94-20.45 165.94-16.5L165.94-16.5Q165.94-12.6 167.14-9.83 168.34-7.05 170.59-5.6 172.84-4.15 175.99-4.15L175.99-4.15Q179.04-4.15 181.26-5.73 183.49-7.3 184.44-10.45L184.44-10.45ZM206.64 0.5L206.64 0.5Q202.89 0.5 200.04-1.05 197.19-2.6 195.61-5.53 194.04-8.45 194.04-12.5L194.04-12.5Q194.04-16.55 195.61-19.48 197.19-22.4 199.99-23.95 202.79-25.5 206.34-25.5L206.34-25.5Q209.99-25.5 212.54-24 215.09-22.5 216.44-19.9 217.79-17.3 217.79-14L217.79-14Q217.79-13.1 217.74-12.3 217.69-11.5 217.59-10.9L217.59-10.9 197.49-10.9 197.49-15 215.24-15 212.59-14.2Q212.59-17.6 210.89-19.43 209.19-21.25 206.24-21.25L206.24-21.25Q204.09-21.25 202.49-20.25 200.89-19.25 200.04-17.28 199.19-15.3 199.19-12.45L199.19-12.45Q199.19-9.65 200.09-7.7 200.99-5.75 202.64-4.75 204.29-3.75 206.54-3.75L206.54-3.75Q209.04-3.75 210.59-4.7 212.14-5.65 213.04-7.35L213.04-7.35 217.29-5.35Q216.39-3.55 214.86-2.23 213.34-0.9 211.24-0.2 209.14 0.5 206.64 0.5ZM229.88 0L224.53 0 224.53-25 229.28-25 229.63-18.5 228.93-19.2Q229.63-21.35 230.96-22.78 232.28-24.2 234.11-24.85 235.93-25.5 237.98-25.5L237.98-25.5Q240.63-25.5 242.76-24.48 244.88-23.45 246.13-21.4 247.38-19.35 247.38-16.2L247.38-16.2 247.38 0 242.03 0 242.03-14.55Q242.03-18.25 240.51-19.68 238.98-21.1 236.68-21.1L236.68-21.1Q235.03-21.1 233.48-20.33 231.93-19.55 230.91-17.85 229.88-16.15 229.88-13.3L229.88-13.3 229.88 0ZM257.43-30.85L262.78-32.35 262.78-7.5Q262.78-5.65 263.76-4.8 264.73-3.95 266.38-3.95L266.38-3.95Q267.73-3.95 268.73-4.38 269.73-4.8 270.58-5.55L270.58-5.55 271.78-1.65Q270.63-0.65 268.96-0.08 267.28 0.5 265.23 0.5L265.23 0.5Q263.08 0.5 261.28-0.2 259.48-0.9 258.48-2.48 257.48-4.05 257.43-6.6L257.43-6.6 257.43-30.85ZM252.63-25L271.38-25 271.38-20.8 252.63-20.8 252.63-25ZM287.68 0.5L287.68 0.5Q283.93 0.5 281.08-1.05 278.23-2.6 276.65-5.53 275.08-8.45 275.08-12.5L275.08-12.5Q275.08-16.55 276.65-19.48 278.23-22.4 281.03-23.95 283.83-25.5 287.38-25.5L287.38-25.5Q291.03-25.5 293.58-24 296.13-22.5 297.48-19.9 298.83-17.3 298.83-14L298.83-14Q298.83-13.1 298.78-12.3 298.73-11.5 298.63-10.9L298.63-10.9 278.53-10.9 278.53-15 296.28-15 293.63-14.2Q293.63-17.6 291.93-19.43 290.23-21.25 287.28-21.25L287.28-21.25Q285.13-21.25 283.53-20.25 281.93-19.25 281.08-17.28 280.23-15.3 280.23-12.45L280.23-12.45Q280.23-9.65 281.13-7.7 282.03-5.75 283.68-4.75 285.33-3.75 287.58-3.75L287.58-3.75Q290.08-3.75 291.63-4.7 293.18-5.65 294.08-7.35L294.08-7.35 298.33-5.35Q297.43-3.55 295.9-2.23 294.38-0.9 292.28-0.2 290.18 0.5 287.68 0.5ZM310.93 0L305.57 0 305.57-25 310.13-25 310.63-20.5Q311.63-22.95 313.6-24.23 315.57-25.5 318.48-25.5L318.48-25.5Q319.23-25.5 319.98-25.38 320.73-25.25 321.23-25L321.23-25 320.48-20.3Q319.93-20.5 319.25-20.63 318.57-20.75 317.43-20.75L317.43-20.75Q315.88-20.75 314.38-19.93 312.88-19.1 311.9-17.45 310.93-15.8 310.93-13.25L310.93-13.25 310.93 0Z" opacity="1" transform="matrix(1,0,0,1,0,0)" fill="#ffffff" class="undefined-text-1" data-fill-palette-color="secondary" id="text-1"></path></svg></g></svg></g></svg></g></svg></g><g><svg viewBox="0 0 245.65351679999992 263.0605296856606" height="263.0605296856606" width="245.65351679999992"><g><svg xmlns="http://www.w3.org/2000/svg" preserveAspectRatio="xMidYMid" viewBox="0 0 58.83121871948242 63" x="0" y="0" height="263.0605296856606" width="245.65351679999992" class="icon-icon-0" data-fill-palette-color="accent" id="icon-0"><path d="M31.5 0C14.131 0 0 14.131 0 31.5S14.131 63 31.5 63c10.605 0 20.423-5.292 26.281-14.156 0.456-0.69 0.252-1.636-0.437-2.094L34.53 31.562l23.563-14.03c0.71-0.424 0.952-1.352 0.531-2.063C52.975 5.915 42.581 0 31.5 0z m0 3c9.527 0 18.464 4.85 23.719 12.75L30.937 30.188a1.489 1.489 0 0 0-0.718 1.25 1.48 1.48 0 0 0 0.656 1.28l23.531 15.688C49.034 55.687 40.596 60 31.5 60 15.785 60 3 47.215 3 31.5S15.785 3 31.5 3z m-2.906 7.344a6.292 6.292 0 0 0-6.282 6.281c0 3.46 2.82 6.281 6.282 6.281 3.46 0 6.281-2.821 6.281-6.281 0-3.461-2.821-6.281-6.281-6.281z m0 3a3.289 3.289 0 0 1 3.281 3.281 3.29 3.29 0 0 1-3.281 3.281 3.289 3.289 0 0 1-3.282-3.281 3.288 3.288 0 0 1 3.282-3.281z" fill-rule="evenodd" fill="#ff851b" data-fill-palette-color="accent"></path></svg></g></svg></g></svg></g></svg><rect width="395.52" height="156.0133496534584" fill="none" stroke="none" visibility="hidden"></rect></g></svg></g></svg>